<svg width="768" height="115" viewBox="0 0 768 115" fill="none" xmlns="http://www.w3.org/2000/svg">
<path d="M0.371875 102.8C0.371875 105.893 1.43854 108.507 3.57188 110.64C5.81188 112.88 8.47854 114 11.5719 114C14.6652 114 17.3319 112.88 19.5719 110.64C21.7052 108.507 22.7719 105.893 22.7719 102.8V43.44L79.8919 110C82.1319 112.667 84.9585 114 88.3719 114C89.7585 114 91.0385 113.787 92.2119 113.36C97.1186 111.547 99.5719 108.027 99.5719 102.8V13.2C99.5719 10.1067 98.5052 7.49333 96.3719 5.36C94.1319 3.11999 91.4652 1.99999 88.3719 1.99999C85.2785 1.99999 82.6119 3.11999 80.3719 5.36C78.2385 7.49333 77.1719 10.1067 77.1719 13.2V72.56L20.0519 5.83999C16.7452 2 12.6385 0.93333 7.73188 2.63999C2.82521 4.45333 0.371875 7.97333 0.371875 13.2V102.8ZM153.774 69.2L169.294 38.16L184.654 69.2H153.774ZM179.214 8.07999C177.294 4.34666 173.988 2.48 169.294 2.48C164.494 2.48 161.134 4.34666 159.214 8.07999L114.414 97.68C113.028 100.453 112.814 103.333 113.774 106.32C114.734 109.2 116.601 111.333 119.374 112.72C122.148 114.107 125.028 114.32 128.014 113.36C130.894 112.4 133.028 110.533 134.414 107.76L142.574 91.6H195.854L204.014 107.76C206.041 111.92 209.401 114 214.094 114C215.801 114 217.454 113.573 219.054 112.72C221.828 111.333 223.694 109.2 224.654 106.32C225.614 103.333 225.401 100.453 224.014 97.68L179.214 8.07999ZM238.966 102.8C238.966 105.893 240.032 108.507 242.166 110.64C244.406 112.88 247.072 114 250.166 114C253.259 114 255.926 112.88 258.166 110.64C260.299 108.507 261.366 105.893 261.366 102.8V69.2H283.446L318.486 110.16C320.726 112.72 323.552 114 326.966 114C329.739 114 332.192 113.093 334.326 111.28C336.672 109.253 337.952 106.693 338.166 103.6C338.379 100.507 337.472 97.7867 335.446 95.44L303.286 58L335.446 20.56C337.472 18.2133 338.379 15.4933 338.166 12.4C337.952 9.30666 336.672 6.74666 334.326 4.72C331.872 2.69333 329.152 1.78666 326.166 1.99999C323.072 2.21333 320.512 3.49333 318.486 5.83999L283.446 46.8H261.366V13.2C261.366 10.1067 260.299 7.49333 258.166 5.36C255.926 3.11999 253.259 1.99999 250.166 1.99999C247.072 1.99999 244.406 3.11999 242.166 5.36C240.032 7.49333 238.966 10.1067 238.966 13.2V102.8ZM351.272 64.4C351.272 78.0533 356.125 89.7333 365.832 99.44C375.539 109.147 387.219 114 400.872 114C414.525 114 426.205 109.147 435.912 99.44C445.619 89.7333 450.472 78.0533 450.472 64.4V13.2C450.472 10.1067 449.405 7.44 447.272 5.2C445.032 3.06666 442.365 1.99999 439.272 1.99999C436.179 1.99999 433.512 3.06666 431.272 5.2C429.139 7.44 428.072 10.1067 428.072 13.2V64.4C428.072 71.8667 425.405 78.2667 420.072 83.6C414.739 88.9333 408.339 91.6 400.872 91.6C393.405 91.6 387.005 88.9333 381.672 83.6C376.339 78.2667 373.672 71.8667 373.672 64.4V13.2C373.672 10.1067 372.605 7.44 370.472 5.2C368.232 3.06666 365.565 1.99999 362.472 1.99999C359.379 1.99999 356.712 3.06666 354.472 5.2C352.339 7.44 351.272 10.1067 351.272 13.2V64.4ZM493.709 59.6H527.309C532.003 59.6 536.163 57.8933 539.789 54.48C543.203 50.8533 544.909 46.6933 544.909 42C544.909 37.0933 543.203 32.9333 539.789 29.52C536.163 26.1067 532.003 24.4 527.309 24.4H493.709V59.6ZM471.309 13.2C471.309 10.1067 472.429 7.44 474.669 5.2C476.803 3.06666 479.416 1.99999 482.509 1.99999H527.309C538.403 1.99999 547.843 5.89333 555.629 13.68C563.416 21.4667 567.309 30.9067 567.309 42C567.309 53.0933 563.416 62.5333 555.629 70.32C547.843 78.1067 538.403 82 527.309 82H493.709V102.8C493.709 105.893 492.643 108.507 490.509 110.64C488.269 112.88 485.603 114 482.509 114C479.416 114 476.803 112.88 474.669 110.64C472.429 108.507 471.309 105.893 471.309 102.8V13.2ZM632.941 24.4C642.221 24.4 650.114 27.7067 656.621 34.32C663.234 40.8267 666.541 48.72 666.541 58C666.541 67.28 663.234 75.1733 656.621 81.68C650.114 88.2933 642.221 91.6 632.941 91.6C623.661 91.6 615.767 88.2933 609.261 81.68C602.647 75.1733 599.341 67.28 599.341 58C599.341 48.72 602.647 40.8267 609.261 34.32C615.767 27.7067 623.661 24.4 632.941 24.4ZM632.941 114C648.407 114 661.581 108.507 672.461 97.52C683.447 86.64 688.941 73.4667 688.941 58C688.941 42.5333 683.447 29.36 672.461 18.48C661.581 7.49333 648.407 1.99999 632.941 1.99999C617.474 1.99999 604.301 7.49333 593.421 18.48C582.434 29.36 576.941 42.5333 576.941 58C576.941 73.4667 582.434 86.64 593.421 97.52C604.301 108.507 617.474 114 632.941 114ZM714.503 1.99999C711.41 1.99999 708.796 3.06666 706.663 5.2C704.423 7.44 703.303 10.1067 703.303 13.2V70.8C703.303 73.8933 704.423 76.56 706.663 78.8C708.796 80.9333 711.41 82 714.503 82C717.596 82 720.263 80.9333 722.503 78.8C724.636 76.56 725.703 73.8933 725.703 70.8V13.2C725.703 10.1067 724.636 7.44 722.503 5.2C720.263 3.06666 717.596 1.99999 714.503 1.99999ZM703.303 102.8C703.303 105.893 704.37 108.507 706.503 110.64C708.743 112.88 711.41 114 714.503 114C717.596 114 720.263 112.88 722.503 110.64C724.636 108.507 725.703 105.893 725.703 102.8C725.703 99.7067 724.636 97.04 722.503 94.8C720.263 92.6667 717.596 91.6 714.503 91.6C711.41 91.6 708.743 92.6667 706.503 94.8C704.37 97.04 703.303 99.7067 703.303 102.8ZM756.066 1.99999C752.972 1.99999 750.359 3.06666 748.226 5.2C745.986 7.44 744.866 10.1067 744.866 13.2V70.8C744.866 73.8933 745.986 76.56 748.226 78.8C750.359 80.9333 752.972 82 756.066 82C759.159 82 761.826 80.9333 764.066 78.8C766.199 76.56 767.266 73.8933 767.266 70.8V13.2C767.266 10.1067 766.199 7.44 764.066 5.2C761.826 3.06666 759.159 1.99999 756.066 1.99999ZM744.866 102.8C744.866 105.893 745.932 108.507 748.066 110.64C750.306 112.88 752.972 114 756.066 114C759.159 114 761.826 112.88 764.066 110.64C766.199 108.507 767.266 105.893 767.266 102.8C767.266 99.7067 766.199 97.04 764.066 94.8C761.826 92.6667 759.159 91.6 756.066 91.6C752.972 91.6 750.306 92.6667 748.066 94.8C745.932 97.04 744.866 99.7067 744.866 102.8Z" fill="white"/>
</svg>
